<?xml version="1.0" encoding="utf-8" ?>
<svg baseProfile="full" height="200mm" version="1.1" viewBox="0,0,200,200" width="200mm" xmlns="http://www.w3.org/2000/svg" xmlns:ev="http://www.w3.org/2001/xml-events" xmlns:xlink="http://www.w3.org/1999/xlink"><defs /><rect fill="#1a1a1a" height="200" width="200" x="0" y="0" /><text alignment-baseline="middle" fill="#e1ed5e" style="dominant-baseline: central; font-size:9.0px; font-family:Arial;" text-anchor="middle" x="100.0" y="100.0">2024</text><line stroke="#e1ed5e" stroke-width="0.3" x1="100.0" x2="100.0" y1="15.0" y2="10.0" /><path d="M 100.0 14.0 a86.0,86.0 0 0,1 42.35913384403234,11.155469271406648" fill="none" id="id73" stroke="none" /><text fill="#e1ed5e" style="font-size:6.75px; font-family:Arial;" text-anchor="middle"><textPath startOffset="22.145653131862478" xlink:href="#id73">January</textPath></text><line stroke="#e1ed5e" stroke-width="0.3" x1="143.13028292997686" x2="145.6673583964461" y1="26.7553504044142" y2="22.446841604673864" /><path d="M 143.63769802327073 25.89364864446614 a86.0,86.0 0 0,1 29.32050498858742,28.57503671076993" fill="none" id="id74" stroke="none" /><text fill="#e1ed5e" style="font-size:6.75px; font-family:Arial;" text-anchor="middle"><textPath startOffset="20.669276256404974" xlink:href="#id74">February</textPath></text><path d="M 115.16444852881244 85.47280134310134 l 3.1333050993728575 -3.0016354069703666 a25.339057036054506,25.339057036054506 0 0,0 0.2982095297659546,0.31668818647933533 l -3.1843704628750724 2.9474057605465362" fill="#ff1d02" stroke="none" /><line stroke="#e1ed5e" stroke-width="0.3" x1="172.87174338648825" x2="177.1583165268699" y1="56.24261187166439" y2="53.66864786411523" /><path d="M 173.72905801456457 55.72781907015455 a86.0,86.0 0 0,1 12.242430191666344,42.057860355516425" fill="none" id="id75" stroke="none" /><text fill="#e1ed5e" style="font-size:6.75px; font-family:Arial;" text-anchor="middle"><textPath startOffset="22.145653131862474" xlink:href="#id75">March</textPath></text><path d="M 118.36410011445183 89.81374322990088 l 2.1045750330127855 -1.1673722940193185 a23.406656216085857,23.406656216085857 0 0,0 0.19188403416924568,0.3530450105222298 l -2.1243044167973726 1.1310724500224854" fill="#ff0000" stroke="none" /><path d="M 119.0197475246899 91.09779779509293 l 3.901978969708391 -1.8263231802918174 a25.308235861569997,25.308235861569997 0 0,0 0.18079183554038106,0.39506278838724235 l -3.9327552701038235 1.759071409689891" fill="#ff1c02" stroke="none" /><path d="M 119.71291397450082 92.76114493625339 l 5.076369933417392 -1.8641133546010942 a26.407813818883398,26.407813818883398 0 0,0 0.15261179974147118,0.42688236523389905 l -5.107621903202806 1.7766960329862782" fill="#ff2c04" stroke="none" /><path d="M 119.83427380445688 93.10060997987247 l 6.105981071117622 -2.1239771760985864 a27.464849873387195,27.464849873387195 0 0,0 0.15107574070012414,0.4466285829800124 l -6.141542233390111 2.0188469186444125" fill="#ff3c05" stroke="none" /><path d="M 119.94978838288452 93.4421083053983 l 2.4912577896195858 -0.8189259181152193 a23.622404437477392,23.622404437477392 0 0,0 0.123326144025115,0.3863173896426537 l -2.504948649421958 0.7760394947811786" fill="#ff0300" stroke="none" /><path d="M 120.16314734710363 94.1308016681162 l 52.76505772661801 -15.35913929802752 a75.95502230797058,75.95502230797058 0 0,0 0.3536665055134344,1.2550376609826506 l -53.02094272420602 14.451093713141855" fill="#43ffdd" stroke="none" /><path d="M 120.93736805541906 98.37931529534042 l 3.9729459281952604 -0.3075311415084512 a24.984830580007234,24.984830580007234 0 0,0 0.029429797119585877,0.42790279116616586 l -3.9776396864799124 0.23928492618795116" fill="#ff1702" stroke="none" /><line stroke="#e1ed5e" stroke-width="0.3" x1="184.99686870605535" x2="189.99668451229388" y1="99.2704041080226" y2="99.22748670261217" /><path d="M 185.99683186730306 99.26182062694052 a86.0,86.0 0 0,1 -10.086455211305974,41.156179273409016" fill="none" id="id76" stroke="none" /><text fill="#e1ed5e" style="font-size:6.75px; font-family:Arial;" text-anchor="middle"><textPath startOffset="21.40746469413373" xlink:href="#id76">April</textPath></text><path d="M 120.99922638620191 99.81974689727618 l 5.3882978167182145 -0.0462520562424946 a26.388496322199444,26.388496322199444 0 0,0 0.0,0.4530103179326423 l -5.3882978167182145 -0.04625205624249394" fill="#ff2c04" stroke="none" /><path d="M 120.98066250479742 100.90099992219065 l 17.101927082470745 0.7344303339845839 a38.11768961774991,38.11768961774991 0 0,0 -0.033685892042530495,0.6534973063667102 l -17.08679960097164 -1.0278994337280247" fill="#ffcd13" stroke="none" /><path d="M 120.96210409425399 101.26102812881392 l 61.775719056938364 3.716273855822456 a82.88739901121428,82.88739901121428 0 0,0 -0.09763361527943142,1.4195713385298088 l -61.70282148049387 -4.776188618506608" fill="#4cdcff" stroke="none" /><path d="M 119.31412917781788 108.2440532568976 l 22.05725388273722 9.41493007714996 a44.98256360786205,44.98256360786205 0 0,0 -0.3092360992853314,0.7075927123046457 l -21.892383901434922 -9.79218485923045" fill="#dbff1b" stroke="none" /><path d="M 119.0197475246899 108.90220220490707 l 57.05924257406971 26.70660661472122 a84.0,84.0 0 0,0 -0.6224829681603521,1.300749991739586 l -56.592380347949444 -27.682169108525912" fill="#4dd2ff" stroke="none" /><line stroke="#e1ed5e" stroke-width="0.3" x1="174.33088141563837" x2="178.70328620479359" y1="141.23008692659167" y2="143.65538615756765" /><path d="M 175.20536237346943 141.71514677278685 a86.0,86.0 0 0,1 -30.301960400862466,31.631185727798858" fill="none" id="id77" stroke="none" /><text fill="#e1ed5e" style="font-size:6.75px; font-family:Arial;" text-anchor="middle"><textPath startOffset="22.145653131862474" xlink:href="#id77">May</textPath></text><line stroke="#e1ed5e" stroke-width="0.3" x1="143.1302829299769" x2="145.66735839644613" y1="173.24464959558577" y2="177.55315839532614" /><path d="M 143.63769802327073 174.10635135553383 a86.0,86.0 0 0,1 -40.68552437913181,11.842963189579606" fill="none" id="id78" stroke="none" /><text fill="#e1ed5e" style="font-size:6.75px; font-family:Arial;" text-anchor="middle"><textPath startOffset="21.407464694133747" xlink:href="#id78">June</textPath></text><line stroke="#e1ed5e" stroke-width="0.3" x1="101.45913802915013" x2="101.54496967792366" y1="184.9874750549273" y2="189.98673829345242" /><path d="M 101.47630435890484 185.9873277026323 a86.0,86.0 0 0,1 -42.54439059252881,-10.42667462771756" fill="none" id="id79" stroke="none" /><text fill="#e1ed5e" style="font-size:6.75px; font-family:Arial;" text-anchor="middle"><textPath startOffset="22.145653131862474" xlink:href="#id79">July</textPath></text><line stroke="#e1ed5e" stroke-width="0.3" x1="58.13341422392154" x2="55.67067388415222" y1="173.97424548756322" y2="178.32567169271397" /><path d="M 57.64086615596768 174.84453072859336 a86.0,86.0 0 0,1 -31.369924170532247,-30.572349798747897" fill="none" id="id80" stroke="none" /><text fill="#e1ed5e" style="font-size:6.75px; font-family:Arial;" text-anchor="middle"><textPath startOffset="22.145653131862474" xlink:href="#id80">August</textPath></text><line stroke="#e1ed5e" stroke-width="0.3" x1="26.387840678322732" x2="22.057713659400548" y1="142.50000000000003" y2="145.00000000000006" /><path d="M 25.521815274538298 143.00000000000003 a86.0,86.0 0 0,1 -11.493303480769221,-40.785679425670985" fill="none" id="id81" stroke="none" /><text fill="#e1ed5e" style="font-size:6.75px; font-family:Arial;" text-anchor="middle"><textPath startOffset="21.40746469413373" xlink:href="#id81">September</textPath></text><line stroke="#e1ed5e" stroke-width="0.3" x1="15.003131293944662" x2="10.003315487706104" y1="100.72959589197737" y2="100.7725132973878" /><path d="M 14.003168132696942 100.73817937305945 a86.0,86.0 0 0,1 10.791469493833604,-42.45332614584628" fill="none" id="id82" stroke="none" /><text fill="#e1ed5e" style="font-size:6.75px; font-family:Arial;" text-anchor="middle"><textPath startOffset="22.145653131862435" xlink:href="#id82">October</textPath></text><line stroke="#e1ed5e" stroke-width="0.3" x1="26.387840678322718" x2="22.05771365940052" y1="57.49999999999999" y2="54.99999999999999" /><path d="M 25.521815274538284 56.99999999999999 a86.0,86.0 0 0,1 29.574782752854787,-30.34633250058573" fill="none" id="id83" stroke="none" /><text fill="#e1ed5e" style="font-size:6.75px; font-family:Arial;" text-anchor="middle"><textPath startOffset="21.40746469413373" xlink:href="#id83">November</textPath></text><line stroke="#e1ed5e" stroke-width="0.3" x1="56.869717070023135" x2="54.33264160355391" y1="26.7553504044142" y2="22.446841604673864" /><path d="M 56.362301976729285 25.89364864446614 a86.0,86.0 0 0,1 42.16139366436587,-11.88097634709845" fill="none" id="id84" stroke="none" /><text fill="#e1ed5e" style="font-size:6.75px; font-family:Arial;" text-anchor="middle"><textPath startOffset="22.145653131862474" xlink:href="#id84">December</textPath></text></svg>