<?xml version="1.0" encoding="utf-8" ?>
<svg baseProfile="full" height="200mm" version="1.1" viewBox="0,0,200,200" width="200mm" xmlns="http://www.w3.org/2000/svg" xmlns:ev="http://www.w3.org/2001/xml-events" xmlns:xlink="http://www.w3.org/1999/xlink"><defs /><rect fill="#1a1a1a" height="200" width="200" x="0" y="0" /><text alignment-baseline="middle" fill="#e1ed5e" style="dominant-baseline: central; font-size:9.0px; font-family:Arial;" text-anchor="middle" x="100.0" y="100.0">2023</text><line stroke="#e1ed5e" stroke-width="0.3" x1="100.0" x2="100.0" y1="15.0" y2="10.0" /><path d="M 100.0 14.0 a86.0,86.0 0 0,1 42.46469731375804,11.215312516191453" fill="none" id="id61" stroke="none" /><text fill="#e1ed5e" style="font-size:6.75px; font-family:Arial;" text-anchor="middle"><textPath startOffset="22.20632615414155" xlink:href="#id61">January</textPath></text><line stroke="#e1ed5e" stroke-width="0.3" x1="143.23703022742887" x2="145.7803849466894" y1="26.81831364943548" y2="22.513508569990506" /><path d="M 143.74570117128098 25.957352633546492 a86.0,86.0 0 0,1 28.547481713284135,27.462654790039103" fill="none" id="id62" stroke="none" /><text fill="#e1ed5e" style="font-size:6.75px; font-family:Arial;" text-anchor="middle"><textPath startOffset="19.985693538727396" xlink:href="#id62">February</textPath></text><line stroke="#e1ed5e" stroke-width="0.3" x1="172.23445277983987" x2="176.4835382374775" y1="55.19839476539836" y2="52.563006222186495" /><path d="M 173.08426987136738 54.67131705675599 a86.0,86.0 0 0,1 12.851231095245387,41.99856678651699" fill="none" id="id63" stroke="none" /><text fill="#e1ed5e" style="font-size:6.75px; font-family:Arial;" text-anchor="middle"><textPath startOffset="22.20632615414155" xlink:href="#id63">March</textPath></text><line stroke="#e1ed5e" stroke-width="0.3" x1="184.98032266829074" x2="189.97916517819016" y1="98.17113171792111" y2="98.06355123074" /><path d="M 185.9800911702706 98.14961562048488 a86.0,86.0 0 0,1 -9.607161424134198,41.387399972396054" fill="none" id="id64" stroke="none" /><text fill="#e1ed5e" style="font-size:6.75px; font-family:Arial;" text-anchor="middle"><textPath startOffset="21.466115282336823" xlink:href="#id64">April</textPath></text><line stroke="#e1ed5e" stroke-width="0.3" x1="174.80103733775053" x2="179.2010983576182" y1="140.37084112569926" y2="142.7455964860345" /><path d="M 175.68104954172406 140.8457921977663 a86.0,86.0 0 0,1 -30.038265399797805,32.042727171017184" fill="none" id="id65" stroke="none" /><text fill="#e1ed5e" style="font-size:6.75px; font-family:Arial;" text-anchor="middle"><textPath startOffset="22.206326154141568" xlink:href="#id65">May</textPath></text><path d="M 114.0293411484842 115.62618273729858 l 33.35192496868732 37.14809331995523 a70.92325847162874,70.92325847162874 0 0,0 -0.9154424555008385,0.8077715303102887 l -32.70754016027989 -37.71668799203781" fill="#38ff7d" stroke="none" /><path d="M 113.48314897796784 116.09983520530334 l 19.653937273509015 23.468193650898538 a51.611000695617605,51.611000695617605 0 0,0 -0.6860081899927428,0.5645380371642346 l -19.24705895497158 -23.803026806919952" fill="#fdff18" stroke="none" /><path d="M 112.34349029814194 116.9893568818739 l 15.695539698146643 21.603057072566614 a47.702847063499945,47.702847063499945 0 0,0 -0.6684592511710532,0.4769279270166404 l -15.321353119126705 -21.870029261427472" fill="#ffc111" stroke="none" /><line stroke="#e1ed5e" stroke-width="0.3" x1="143.8653032363475" x2="146.44561519142675" y1="172.8068346515853" y2="177.08958963109032" /><path d="M 144.38136562736335 173.6633856474863 a86.0,86.0 0 0,1 -40.68145358897372,12.25698825130547" fill="none" id="id66" stroke="none" /><text fill="#e1ed5e" style="font-size:6.75px; font-family:Arial;" text-anchor="middle"><textPath startOffset="21.466115282336833" xlink:href="#id66">June</textPath></text><path d="M 109.2508944713604 118.85261126421891 l 10.924706069167154 22.263710534747233 a45.79963728510384,45.79963728510384 0 0,0 -0.7107391238761693,0.34119797100599025 l -10.539854277290752 -22.448462782252783" fill="#ffa00e" stroke="none" /><path d="M 107.2578585660854 119.70592522655815 l 11.036625881236247 29.965715422647257 a52.93354367484845,52.93354367484845 0 0,0 -0.8577261666239311,0.307550086916044 l -10.519180153982582 -30.151253050603263" fill="#e8ff1a" stroke="none" /><path d="M 101.98527174616119 120.90594882070398 l 3.050113667050094 32.11929064319725 a53.263788134751074,53.263788134751074 0 0,0 -0.9134883788257738,0.07881962108372598 l -2.4967809704827784 -32.16703451655964" fill="#e3ff1b" stroke="none" /><line stroke="#e1ed5e" stroke-width="0.3" x1="102.19456741930631" x2="102.32365962044197" y1="184.97166512339345" y2="189.96999836594603" /><path d="M 102.22038585953345 185.97133177190398 a86.0,86.0 0 0,1 -42.740103519485714,-10.115201625700543" fill="none" id="id67" stroke="none" /><text fill="#e1ed5e" style="font-size:6.75px; font-family:Arial;" text-anchor="middle"><textPath startOffset="22.20632615414155" xlink:href="#id67">July</textPath></text><line stroke="#e1ed5e" stroke-width="0.3" x1="58.666819895761336" x2="56.23545636021788" y1="174.27360380694188" y2="178.64263932499728" /><path d="M 58.180547188652646 175.14741091055294 a86.0,86.0 0 0,1 -31.652253787137756,-30.449443065178592" fill="none" id="id68" stroke="none" /><text fill="#e1ed5e" style="font-size:6.75px; font-family:Arial;" text-anchor="middle"><textPath startOffset="22.20632615414155" xlink:href="#id68">August</textPath></text><path d="M 82.05923443525364 110.91462005526583 l -27.36443659563756 16.647696966437582 a53.03058233131273,53.03058233131273 0 0,0 -0.46772752479136004,-0.7839382351872817 l 27.64694499612715 -16.17419663736419" fill="#e6ff1a" stroke="none" /><line stroke="#e1ed5e" stroke-width="0.3" x1="26.63291911575756" x2="22.317208475507996" y1="142.92168965132927" y2="145.44649492493687" /><path d="M 25.769776987707644 143.4266507060508 a86.0,86.0 0 0,1 -11.730757126820373,-40.83630448921669" fill="none" id="id69" stroke="none" /><text fill="#e1ed5e" style="font-size:6.75px; font-family:Arial;" text-anchor="middle"><textPath startOffset="21.46611528233685" xlink:href="#id69">September</textPath></text><path d="M 79.86692584326677 105.97154293290107 l -16.253711065219193 4.8209097472809646 a37.95359236808109,37.95359236808109 0 0,0 -0.18038323690275518,-0.6279377117159807 l 16.33428693900805 -4.540414560060388" fill="#ff1202" stroke="none" /><path d="M 79.76711848015287 105.62410040840567 l -31.47275689660607 8.748429863646635 a53.66602901719169,53.66602901719169 0 0,0 -0.23973873415242286,-0.8921570147793448 l 31.61868370710027 -8.205381915691751" fill="#dcff1b" stroke="none" /><path d="M 79.67330655649465 105.27499134158121 l -48.422595339468465 12.566174221228284 a71.02655768657459,71.02655768657459 0 0,0 -0.2969203880690758,-1.186049354481757 l 48.6317270418326 -11.730797027349134" fill="#38ff7e" stroke="none" /><path d="M 79.18660465613746 102.79330883721812 l -47.013184886696976 6.3095109010411665 a68.4346864752062,68.4346864752062 0 0,0 -0.14664083840711498,-1.1688717633125747 l 47.11482723435094 -5.499321383441184" fill="#33ff57" stroke="none" /><line stroke="#e1ed5e" stroke-width="0.3" x1="15.007084014347285" x2="10.007500721073583" y1="101.09737516637583" y2="101.16192664675087" /><path d="M 14.007167355692545 101.11028546245083 a86.0,86.0 0 0,1 10.666146001902534,-42.60595125391555" fill="none" id="id70" stroke="none" /><text fill="#e1ed5e" style="font-size:6.75px; font-family:Arial;" text-anchor="middle"><textPath startOffset="22.20632615414155" xlink:href="#id70">October</textPath></text><path d="M 79.05617556472873 98.46500227214037 l -44.38413276303064 -3.2529657205078606 a65.50317996621285,65.50317996621285 0 0,0 0.09209596190318153,-1.1238040057362266 l 44.32156231730796 4.016483643451865" fill="#35ff2f" stroke="none" /><path d="M 79.3925641242962 95.95851677861259 l -31.433353569921042 -6.16463745470397 a53.03214747093312,53.03214747093312 0 0,0 0.18339199468947634,-0.8942844964471365 l 31.322582279316574 6.704797607314509" fill="#e6ff1a" stroke="none" /><path d="M 79.46518482838121 95.60439243477599 l -46.5323850102776 -9.960552450541893 a68.58650501838419,68.58650501838419 0 0,0 0.2570544248028454,-1.152324583083677 l 46.35403619847271 10.76005520317553" fill="#34ff59" stroke="none" /><path d="M 79.62865764111835 94.90015583598534 l -30.403666705003857 -7.611376780114783 a52.34192089834046,52.34192089834046 0 0,0 0.22632563878683484,-0.8721250102841882 l 30.268144734346713 8.133598215947837" fill="#f1ff19" stroke="none" /><path d="M 79.81627453868168 94.20196356495316 l -45.37427042803423 -13.034346590752117 a68.20930636986984,68.20930636986984 0 0,0 0.33388164080588106,-1.1256829113428084 l 45.14318289011664 13.813458888841463" fill="#33ff54" stroke="none" /><path d="M 80.02781315780177 93.51064311812611 l -43.17052788413741 -14.026954806328128 a66.39217927059525,66.39217927059525 0 0,0 0.3625098546455279,-1.0838583242649091 l 42.92268073572011 14.76798623351536" fill="#30ff37" stroke="none" /><path d="M 80.38941819471856 92.48833698450439 l -58.83174541584431 -22.534989046486853 a84.0,84.0 0 0,0 0.5288258004732356,-1.3458039804169464 l 58.435126065489385 23.544342031799562" fill="#4dd2ff" stroke="none" /><path d="M 81.43458229118936 90.18545643968196 l -43.47966217807488 -22.98537232653338 a70.18138229156315,70.18138229156315 0 0,0 0.5737892821482647,-1.063144396331423 l 43.077564796708145 23.730397706197277" fill="#36ff72" stroke="none" /><line stroke="#e1ed5e" stroke-width="0.3" x1="26.266209847984243" x2="21.928928074336255" y1="57.711370442889674" y2="55.22380399835377" /><path d="M 25.398753493254645 57.213857153982495 a86.0,86.0 0 0,1 29.58750427330803,-30.492523968695096" fill="none" id="id71" stroke="none" /><text fill="#e1ed5e" style="font-size:6.75px; font-family:Arial;" text-anchor="middle"><textPath startOffset="21.46611528233685" xlink:href="#id71">November</textPath></text><path d="M 81.96595687620814 89.24020034530311 l -21.399185176430258 -12.767572068649699 a45.9185878962536,45.9185878962536 0 0,0 0.4108274871767518,-0.6752923691041275 l 21.176241890967287 13.1340322109609" fill="#ffa30f" stroke="none" /><path d="M 86.10567301691215 84.25364557470407 l -10.608179887813167 -12.02218434359025 a37.033290271290866,37.033290271290866 0 0,0 0.48162005855255463,-0.4176561688139072 l 10.399666030613838 12.203005505823839" fill="#ff0000" stroke="none" /><path d="M 86.65592168130627 83.78471172551755 l -20.169276679651357 -24.50904647270973 a52.7410315015403,52.7410315015403 0 0,0 0.7059678433945523,-0.5708435659190633 l 19.744405437692308 24.85259613589293" fill="#ebff1a" stroke="none" /><line stroke="#e1ed5e" stroke-width="0.3" x1="56.762969772571076" x2="54.21961505331055" y1="26.818313649435495" y2="22.513508569990535" /><path d="M 56.25429882871897 25.957352633546506 a86.0,86.0 0 0,1 42.265352541879196,-11.944610805530505" fill="none" id="id72" stroke="none" /><text fill="#e1ed5e" style="font-size:6.75px; font-family:Arial;" text-anchor="middle"><textPath startOffset="22.20632615414155" xlink:href="#id72">December</textPath></text></svg>