<?xml version="1.0" encoding="utf-8" ?>
<svg baseProfile="full" height="200mm" version="1.1" viewBox="0,0,200,200" width="200mm" xmlns="http://www.w3.org/2000/svg" xmlns:ev="http://www.w3.org/2001/xml-events" xmlns:xlink="http://www.w3.org/1999/xlink"><defs /><rect fill="#1a1a1a" height="200" width="200" x="0" y="0" /><text alignment-baseline="middle" fill="#e1ed5e" style="dominant-baseline: central; font-size:9.0px; font-family:Arial;" text-anchor="middle" x="100.0" y="100.0">2018</text><line stroke="#e1ed5e" stroke-width="0.3" x1="100.0" x2="100.0" y1="15.0" y2="10.0" /><path d="M 100.0 14.0 a86.0,86.0 0 0,1 42.46469731375804,11.215312516191453" fill="none" id="id1" stroke="none" /><text fill="#e1ed5e" style="font-size:6.75px; font-family:Arial;" text-anchor="middle"><textPath startOffset="22.20632615414155" xlink:href="#id1">January</textPath></text><line stroke="#e1ed5e" stroke-width="0.3" x1="143.23703022742887" x2="145.7803849466894" y1="26.81831364943548" y2="22.513508569990506" /><path d="M 143.74570117128098 25.957352633546492 a86.0,86.0 0 0,1 28.547481713284135,27.462654790039103" fill="none" id="id2" stroke="none" /><text fill="#e1ed5e" style="font-size:6.75px; font-family:Arial;" text-anchor="middle"><textPath startOffset="19.985693538727396" xlink:href="#id2">February</textPath></text><line stroke="#e1ed5e" stroke-width="0.3" x1="172.23445277983987" x2="176.4835382374775" y1="55.19839476539836" y2="52.563006222186495" /><path d="M 173.08426987136738 54.67131705675599 a86.0,86.0 0 0,1 12.851231095245387,41.99856678651699" fill="none" id="id3" stroke="none" /><text fill="#e1ed5e" style="font-size:6.75px; font-family:Arial;" text-anchor="middle"><textPath startOffset="22.20632615414155" xlink:href="#id3">March</textPath></text><line stroke="#e1ed5e" stroke-width="0.3" x1="184.98032266829074" x2="189.97916517819016" y1="98.17113171792111" y2="98.06355123074" /><path d="M 185.9800911702706 98.14961562048488 a86.0,86.0 0 0,1 -9.607161424134198,41.387399972396054" fill="none" id="id4" stroke="none" /><text fill="#e1ed5e" style="font-size:6.75px; font-family:Arial;" text-anchor="middle"><textPath startOffset="21.466115282336823" xlink:href="#id4">April</textPath></text><line stroke="#e1ed5e" stroke-width="0.3" x1="174.80103733775053" x2="179.2010983576182" y1="140.37084112569926" y2="142.7455964860345" /><path d="M 175.68104954172406 140.8457921977663 a86.0,86.0 0 0,1 -30.038265399797805,32.042727171017184" fill="none" id="id5" stroke="none" /><text fill="#e1ed5e" style="font-size:6.75px; font-family:Arial;" text-anchor="middle"><textPath startOffset="22.206326154141568" xlink:href="#id5">May</textPath></text><line stroke="#e1ed5e" stroke-width="0.3" x1="143.8653032363475" x2="146.44561519142675" y1="172.8068346515853" y2="177.08958963109032" /><path d="M 144.38136562736335 173.6633856474863 a86.0,86.0 0 0,1 -40.68145358897372,12.25698825130547" fill="none" id="id6" stroke="none" /><text fill="#e1ed5e" style="font-size:6.75px; font-family:Arial;" text-anchor="middle"><textPath startOffset="21.466115282336833" xlink:href="#id6">June</textPath></text><path d="M 104.48393922423573 120.51570834832081 l 6.618746001349035 30.283252248682306 a51.998115513490426,51.998115513490426 0 0,0 -0.8760655837264016,0.18358806089598914 l -6.096488956193256 -30.392696290304837" fill="#b7ff1f" stroke="none" /><path d="M 104.13013068566511 120.58985236759428 l 3.193799432188468 15.921980151549892 a37.239144274234285,37.239144274234285 0 0,0 -0.6295762963328503,0.12065979559640487 l -2.919255521283913 -15.974597145494766" fill="#ff740a" stroke="none" /><path d="M 102.70371172650421 120.8252237178851 l 2.408585944715607 18.552030029958175 a39.707728469420104,39.707728469420104 0 0,0 -0.6785721352665173,0.08216563553123721 l -2.0888863863977094 -18.590741194214765" fill="#ff9a0e" stroke="none" /><path d="M 101.26447882468166 120.96189622390904 l 1.1713263835202505 19.417661740487844 a40.452958463039394,40.452958463039394 0 0,0 -0.6954286034824347,0.035945715331473116 l -0.8369097116243361 -19.43494726258152" fill="#ffa60f" stroke="none" /><line stroke="#e1ed5e" stroke-width="0.3" x1="102.19456741930631" x2="102.32365962044197" y1="184.97166512339345" y2="189.96999836594603" /><path d="M 102.22038585953345 185.97133177190398 a86.0,86.0 0 0,1 -42.740103519485714,-10.115201625700543" fill="none" id="id7" stroke="none" /><text fill="#e1ed5e" style="font-size:6.75px; font-family:Arial;" text-anchor="middle"><textPath startOffset="22.20632615414155" xlink:href="#id7">July</textPath></text><path d="M 100.54218724476979 120.99299961872073 l 0.515588837034513 19.96313333390537 a40.9697902932444,40.9697902932444 0 0,0 -0.7051492242201247,0.012139783379417967 l -0.1718799229217203 -19.969050594563946" fill="#ffad10" stroke="none" /><path d="M 99.81925306533755 120.99922214144158 l -0.20791725246656642 24.15587616872994 a45.156770956874354,45.156770956874354 0 0,0 -0.7772132046713539,-0.013380430156139708 l 0.6236901470305882 -24.14871826129464" fill="#ffea16" stroke="none" /><path d="M 98.01472825383883 120.90594882070398 l -2.586019508356166 27.232136656140618 a48.35464793698351,48.35464793698351 0 0,0 -0.8279407238453269,-0.08581944127193912 l 3.054392828807086 -27.18358784641292" fill="#e7ff1a" stroke="none" /><path d="M 97.65516085044442 120.86867818915974 l -2.0408163805526565 18.16292614228616 a39.27722127538193,39.27722127538193 0 0,0 -0.6712151244989101,-0.08127480398377197 l 2.353158928102956 -18.12510580957704" fill="#ff940d" stroke="none" /><path d="M 96.93821686468263 120.77559828337769 l -2.6787663717215464 18.176654444253924 a39.37298440809446,39.37298440809446 0 0,0 -0.6696484749177323,-0.10458531976569152 l 2.991250710247796 -18.127850817141127" fill="#ff950d" stroke="none" /><path d="M 96.58105272829116 120.7198165907248 l -4.253550772944749 25.777756973333112 a47.1263363056178,47.1263363056178 0 0,0 -0.7992425307618978,-0.1389585587209985 l 4.6966422751786965 -25.700719836091107" fill="#f8ff18" stroke="none" /><path d="M 95.86986931433489 120.58985236759428 l -2.347363154880892 11.7022594417844 a32.935367184285724,32.935367184285724 0 0,0 -0.5548959109885079,-0.1162838332995297 l 2.5484505272987867 -11.66011962775833" fill="#ff3004" stroke="none" /><path d="M 95.16358092515715 120.4354850818985 l -3.931634195526102 16.61246693200719 a38.07137384671962,38.07137384671962 0 0,0 -0.6364205111525791,-0.15641667760719608 l 4.217007991421891 -16.542328996085963" fill="#ff810b" stroke="none" /><path d="M 94.46302465271185 120.25689768951611 l -7.003279456935186 25.62133774348611 a47.561228716264544,47.561228716264544 0 0,0 -0.7878604322398209,-0.22265722787612074 l 7.44327105727962 -25.496991722271467" fill="#f2ff19" stroke="none" /><path d="M 94.11515582081647 120.15858648285463 l -5.258030386621795 18.011430218174223 a39.7632220594118,39.7632220594118 0 0,0 -0.6553831548405757,-0.1974615683634681 l 5.567288515902616 -17.918253280705027" fill="#ff9b0e" stroke="none" /><path d="M 93.76903079525671 120.05430185196036 l -5.680110942897621 18.281370948644426 a40.14346322078546,40.14346322078546 0 0,0 -0.6581208343353965,-0.21070950838323566 l 5.993953122323958 -18.180888593601484" fill="#ffa10e" stroke="none" /><path d="M 92.06813273071674 119.44442032107085 l -11.985324888190162 29.38118943480754 a52.73172395694121,52.73172395694121 0 0,0 -0.8375016633114907,-0.35007576318760036 l 12.489298010999114 -29.170528628599964" fill="#adff20" stroke="none" /><line stroke="#e1ed5e" stroke-width="0.3" x1="58.666819895761336" x2="56.23545636021788" y1="174.27360380694188" y2="178.64263932499728" /><path d="M 58.180547188652646 175.14741091055294 a86.0,86.0 0 0,1 -31.652253787137756,-30.449443065178592" fill="none" id="id8" stroke="none" /><text fill="#e1ed5e" style="font-size:6.75px; font-family:Arial;" text-anchor="middle"><textPath startOffset="22.20632615414155" xlink:href="#id8">August</textPath></text><path d="M 83.72743513129214 113.27417163493432 l -20.156791597153205 16.44268825652314 a47.01265546983372,47.01265546983372 0 0,0 -0.506129490879308,-0.6314743608388038 l 20.436839000087375 -16.093286062106078" fill="#faff18" stroke="none" /><path d="M 82.6465618267979 111.8261652097733 l -28.842383299595223 19.655746978794788 a55.90317268809771,55.90317268809771 0 0,0 -0.5350649575235863,-0.7998495129309802 l 29.176451362529537 -19.156360551657986" fill="#85ff25" stroke="none" /><path d="M 82.24976979558568 111.22182372390057 l -35.025666265010514 22.143479161209427 a62.43827900228015,62.43827900228015 0 0,0 -0.5665095232481977,-0.9133937320352216 l 35.401640427926665 -21.537289097808944" fill="#38ff2e" stroke="none" /><line stroke="#e1ed5e" stroke-width="0.3" x1="26.63291911575756" x2="22.317208475507996" y1="142.92168965132927" y2="145.44649492493687" /><path d="M 25.769776987707644 143.4266507060508 a86.0,86.0 0 0,1 -11.730757126820373,-40.83630448921669" fill="none" id="id9" stroke="none" /><text fill="#e1ed5e" style="font-size:6.75px; font-family:Arial;" text-anchor="middle"><textPath startOffset="21.46611528233685" xlink:href="#id9">September</textPath></text><path d="M 81.51974371655577 109.97397251340807 l -36.47229897651571 19.68445144445643 a62.445219522901695,62.445219522901695 0 0,0 -0.502379200559077,-0.9503121209128609 l 36.80573068529967 -19.053724308457443" fill="#38ff2e" stroke="none" /><path d="M 81.18737489456691 109.33194174019688 l -35.24923361870812 17.48526814694109 a60.347720046740896,60.347720046740896 0 0,0 -0.45360433714784243,-0.9345592876912058 l 35.544991212470684 -16.8759199032846" fill="#50ff2b" stroke="none" /><path d="M 81.02952815118164 109.00673069616217 l -56.9114155464551 27.020192088486496 a84.0,84.0 0 0,0 -0.6089015326406932,-1.3115197308846915 l 57.36809169593562 -26.03655229032298" fill="#4dd2ff" stroke="none" /><path d="M 80.20201598880116 107.00284435728193 l -59.374480811096575 21.00164580794377 a83.97934660052927,83.97934660052927 0 0,0 -0.47032100817232664,-1.366973002132665 l 59.727192650212125 -19.976500102721808" fill="#4dd2ff" stroke="none" /><path d="M 79.23777060512086 103.15116336523772 l -8.936962074522993 1.3563970877184168 a30.039308833148326,30.039308833148326 0 0,0 -0.0731899877739759,-0.5118906040248228 l 8.95898611331357 -1.2023610117131935" fill="#ff0000" stroke="none" /><path d="M 79.07016306316243 101.71520430193888 l -34.93582356788743 2.8629976934962342 a56.05293888049223,56.05293888049223 0 0,0 -0.07052912105715632,-0.9623138211772686 l 34.97992924760892 -2.261210735822205" fill="#83ff25" stroke="none" /><line stroke="#e1ed5e" stroke-width="0.3" x1="15.007084014347285" x2="10.007500721073583" y1="101.09737516637583" y2="101.16192664675087" /><path d="M 14.007167355692545 101.11028546245083 a86.0,86.0 0 0,1 10.666146001902534,-42.60595125391555" fill="none" id="id10" stroke="none" /><text fill="#e1ed5e" style="font-size:6.75px; font-family:Arial;" text-anchor="middle"><textPath startOffset="22.20632615414155" xlink:href="#id10">October</textPath></text><path d="M 79.12142395522702 97.74499172005258 l -39.775015348365756 -4.295934203235836 a61.006335706251114,61.006335706251114 0 0,0 0.12175019019016826,-1.043081277961192 l 39.695174805172 4.97995921952189" fill="#48ff2c" stroke="none" /><path d="M 79.62865764111835 94.90015583598534 l -61.08136434776815 -15.291355572511186 a83.96632930249127,83.96632930249127 0 0,0 0.36306908095485263,-1.399053274118232 l 60.809098934942995 16.34050527217828" fill="#4dd2ff" stroke="none" /><line stroke="#e1ed5e" stroke-width="0.3" x1="26.266209847984243" x2="21.928928074336255" y1="57.711370442889674" y2="55.22380399835377" /><path d="M 25.398753493254645 57.213857153982495 a86.0,86.0 0 0,1 29.58750427330803,-30.492523968695096" fill="none" id="id11" stroke="none" /><text fill="#e1ed5e" style="font-size:6.75px; font-family:Arial;" text-anchor="middle"><textPath startOffset="21.46611528233685" xlink:href="#id11">November</textPath></text><path d="M 81.96595687620814 89.24020034530311 l -9.33570712196116 -5.570039817344531 a31.871097968183335,31.871097968183335 0 0,0 0.2851464666425631,-0.4687058169452164 l 9.238444857032377 5.729913407496822" fill="#ff1e03" stroke="none" /><path d="M 88.09926311788651 82.69761687909137 l -14.776407906026861 -21.483297485986874 a47.074399350257394,47.074399350257394 0 0,0 0.6715842409032838,-0.45345667734535783 l 14.404418970717039 21.7344660756309" fill="#f9ff18" stroke="none" /><line stroke="#e1ed5e" stroke-width="0.3" x1="56.76296977257108" x2="54.21961505331056" y1="26.818313649435495" y2="22.513508569990535" /><path d="M 56.25429882871898 25.957352633546506 a86.0,86.0 0 0,1 42.26535254187918,-11.944610805530505" fill="none" id="id12" stroke="none" /><text fill="#e1ed5e" style="font-size:6.75px; font-family:Arial;" text-anchor="middle"><textPath startOffset="22.20632615414155" xlink:href="#id12">December</textPath></text></svg>