<?xml version="1.0" encoding="utf-8" ?>
<svg baseProfile="full" height="200mm" version="1.1" viewBox="0,0,200,200" width="200mm" xmlns="http://www.w3.org/2000/svg" xmlns:ev="http://www.w3.org/2001/xml-events" xmlns:xlink="http://www.w3.org/1999/xlink"><defs /><rect fill="#1a1a1a" height="200" width="200" x="0" y="0" /><text alignment-baseline="middle" fill="#e1ed5e" style="dominant-baseline: central; font-size:9.0px; font-family:Arial;" text-anchor="middle" x="100.0" y="100.0">2018</text><line stroke="#e1ed5e" stroke-width="0.3" x1="100.0" x2="100.0" y1="15.0" y2="10.0" /><path d="M 100.0 14.0 a86.0,86.0 0 0,1 42.46469731375804,11.215312516191453" fill="none" id="id1" stroke="none" /><text fill="#e1ed5e" style="font-size:6.75px; font-family:Arial;" text-anchor="middle"><textPath startOffset="22.20632615414155" xlink:href="#id1">January</textPath></text><line stroke="#e1ed5e" stroke-width="0.3" x1="143.23703022742887" x2="145.7803849466894" y1="26.81831364943548" y2="22.513508569990506" /><path d="M 143.74570117128098 25.957352633546492 a86.0,86.0 0 0,1 28.547481713284135,27.462654790039103" fill="none" id="id2" stroke="none" /><text fill="#e1ed5e" style="font-size:6.75px; font-family:Arial;" text-anchor="middle"><textPath startOffset="19.985693538727396" xlink:href="#id2">February</textPath></text><line stroke="#e1ed5e" stroke-width="0.3" x1="172.23445277983987" x2="176.4835382374775" y1="55.19839476539836" y2="52.563006222186495" /><path d="M 173.08426987136738 54.67131705675599 a86.0,86.0 0 0,1 12.851231095245387,41.99856678651699" fill="none" id="id3" stroke="none" /><text fill="#e1ed5e" style="font-size:6.75px; font-family:Arial;" text-anchor="middle"><textPath startOffset="22.20632615414155" xlink:href="#id3">March</textPath></text><line stroke="#e1ed5e" stroke-width="0.3" x1="184.98032266829074" x2="189.97916517819016" y1="98.17113171792111" y2="98.06355123074" /><path d="M 185.9800911702706 98.14961562048488 a86.0,86.0 0 0,1 -9.607161424134198,41.387399972396054" fill="none" id="id4" stroke="none" /><text fill="#e1ed5e" style="font-size:6.75px; font-family:Arial;" text-anchor="middle"><textPath startOffset="21.466115282336823" xlink:href="#id4">April</textPath></text><line stroke="#e1ed5e" stroke-width="0.3" x1="174.80103733775053" x2="179.2010983576182" y1="140.37084112569926" y2="142.7455964860345" /><path d="M 175.68104954172406 140.8457921977663 a86.0,86.0 0 0,1 -30.038265399797805,32.042727171017184" fill="none" id="id5" stroke="none" /><text fill="#e1ed5e" style="font-size:6.75px; font-family:Arial;" text-anchor="middle"><textPath startOffset="22.206326154141568" xlink:href="#id5">May</textPath></text><line stroke="#e1ed5e" stroke-width="0.3" x1="143.8653032363475" x2="146.44561519142675" y1="172.8068346515853" y2="177.08958963109032" /><path d="M 144.38136562736335 173.6633856474863 a86.0,86.0 0 0,1 -40.68145358897372,12.25698825130547" fill="none" id="id6" stroke="none" /><text fill="#e1ed5e" style="font-size:6.75px; font-family:Arial;" text-anchor="middle"><textPath startOffset="21.466115282336833" xlink:href="#id6">June</textPath></text><path d="M 104.48393922423573 120.51570834832081 l 6.442190485919174 29.475444363537775 a51.171238600443274,51.171238600443274 0 0,0 -0.862134340289116,0.18066863338276315 l -5.933864684200681 -29.58196897764708" fill="#c1ff1e" stroke="none" /><path d="M 104.13013068566511 120.58985236759428 l 3.1424287573488705 15.665883022555375 a36.977945718126655,36.977945718126655 0 0,0 -0.6251603941211684,0.1198134774276002 l -2.872300748655998 -15.717653698331443" fill="#ff710a" stroke="none" /><path d="M 102.70371172650421 120.8252237178851 l 2.4087131320671142 18.55300968508311 a39.70871634632853,39.70871634632853 0 0,0 -0.6785890172632714,0.0821676797059391 l -2.0889966917524627 -18.5917228935144" fill="#ff9a0e" stroke="none" /><path d="M 101.26447882468166 120.96189622390904 l 1.163175340017089 19.282537826433487 a40.31758892562584,40.31758892562584 0 0,0 -0.6931014597595947,0.035825428582585105 l -0.8310858118440148 -19.299703061778274" fill="#ffa40f" stroke="none" /><line stroke="#e1ed5e" stroke-width="0.3" x1="102.19456741930631" x2="102.32365962044197" y1="184.97166512339345" y2="189.96999836594603" /><path d="M 102.22038585953345 185.97133177190398 a86.0,86.0 0 0,1 -42.740103519485714,-10.115201625700543" fill="none" id="id7" stroke="none" /><text fill="#e1ed5e" style="font-size:6.75px; font-family:Arial;" text-anchor="middle"><textPath startOffset="22.20632615414155" xlink:href="#id7">July</textPath></text><path d="M 100.54218724476979 120.99299961872073 l 0.5044037496759289 19.53005687015748 a40.53656941467136,40.53656941467136 0 0,0 -0.6976928676155337,0.012011415438462578 l -0.1681511921677272 -19.535845762875102" fill="#ffa70f" stroke="none" /><path d="M 99.81925306533755 120.99922214144158 l -0.20796766075247652 24.161732615455147 a45.16262762053556,45.16262762053556 0 0,0 -0.777314006306111,-0.013382165547696858 l 0.6238413569512555 -24.15457297262829" fill="#ffea16" stroke="none" /><path d="M 98.01472825383883 120.90594882070398 l -2.5365718208590606 26.7114266696536 a47.83159539294408,47.83159539294408 0 0,0 -0.8189848836025128,-0.08489113181255005 l 2.995989301067167 -26.663806169385293" fill="#eeff19" stroke="none" /><path d="M 97.65516085044442 120.86867818915974 l -2.0409463600172053 18.164082937888697 a39.27838535043418,39.27838535043418 0 0,0 -0.6712350175757558,-0.08127721275833956 l 2.35330880064435 -18.12626019640501" fill="#ff940d" stroke="none" /><path d="M 96.93821686468263 120.77559828337769 l -2.567189965255197 17.419557518639216 a38.607709915343534,38.607709915343534 0 0,0 -0.6566328271412649,-0.10255254326332335 l 2.8666586560049794 -17.372786668028787" fill="#ff8a0c" stroke="none" /><path d="M 96.58105272829116 120.7198165907248 l -4.254212375620855 25.781766478310942 a47.13040002906659,47.13040002906659 0 0,0 -0.799311449775514,-0.13897054117492452 l 4.69737279686842 -25.70471735861501" fill="#f8ff18" stroke="none" /><path d="M 95.86986931433489 120.58985236759428 l -2.2902319705199576 11.417444567606147 a32.64487882861607,32.64487882861607 0 0,0 -0.5500017557222574,-0.11525821547850656 l 2.486425187671602 -11.376330371401098" fill="#ff2b04" stroke="none" /><path d="M 95.16358092515715 120.4354850818985 l -3.88171701352609 16.401550174731604 a37.85463067252843,37.85463067252843 0 0,0 -0.6327973216595246,-0.15552618578156568 l 4.163467619928825 -16.332302730636005" fill="#ff7e0b" stroke="none" /><path d="M 94.46302465271185 120.25689768951611 l -7.004154114420095 25.624537657893146 a47.564546016059296,47.564546016059296 0 0,0 -0.7879153839162327,-0.22267275776877218 l 7.444200666440942 -25.50017610678585" fill="#f2ff19" stroke="none" /><path d="M 94.11515582081647 120.15858648285463 l -5.258364745800267 18.01257556853701 a39.7644152163645,39.7644152163645 0 0,0 -0.6554028206253733,-0.19746749350310672 l 5.5676425408658865 -17.91939270592818" fill="#ff9b0e" stroke="none" /><path d="M 93.76903079525671 120.05430185196036 l -5.680159043236898 18.281525759026465 a40.14362533154089,40.14362533154089 0 0,0 -0.6581234920150547,-0.21071035928833548 l 5.994003880342894 -18.18104255307842" fill="#ffa10e" stroke="none" /><path d="M 92.06813273071674 119.44442032107085 l -11.98757224623429 29.386698676570976 a52.73767394542746,52.73767394542746 0 0,0 -0.8375961628817681,-0.35011526401564047 l 12.491639868613522 -29.175998369535364" fill="#adff20" stroke="none" /><line stroke="#e1ed5e" stroke-width="0.3" x1="58.666819895761336" x2="56.23545636021788" y1="174.27360380694188" y2="178.64263932499728" /><path d="M 58.180547188652646 175.14741091055294 a86.0,86.0 0 0,1 -31.652253787137756,-30.449443065178592" fill="none" id="id8" stroke="none" /><text fill="#e1ed5e" style="font-size:6.75px; font-family:Arial;" text-anchor="middle"><textPath startOffset="22.20632615414155" xlink:href="#id8">August</textPath></text><path d="M 83.72743513129214 113.27417163493432 l -19.93644905616498 16.26294617338173 a46.728299967300075,46.728299967300075 0 0,0 -0.5030681725111417,-0.6276548954752986 l 20.213435140730983 -15.917363444328174" fill="#feff18" stroke="none" /><path d="M 82.6465618267979 111.8261652097733 l -28.74606522518003 19.59010733728097 a55.78661483123206,55.78661483123206 0 0,0 -0.5339493495583493,-0.7981818303906335 l 29.079017680149107 -19.092388592684514" fill="#86ff25" stroke="none" /><path d="M 82.24976979558568 111.22182372390057 l -34.99999975270011 22.12725260676829 a62.407913381535444,62.407913381535444 0 0,0 -0.5662340125581835,-0.9129495210784052 l 35.375698404926254 -21.521506754324623" fill="#38ff2e" stroke="none" /><line stroke="#e1ed5e" stroke-width="0.3" x1="26.63291911575756" x2="22.317208475507996" y1="142.92168965132927" y2="145.44649492493687" /><path d="M 25.769776987707644 143.4266507060508 a86.0,86.0 0 0,1 -11.730757126820373,-40.83630448921669" fill="none" id="id9" stroke="none" /><text fill="#e1ed5e" style="font-size:6.75px; font-family:Arial;" text-anchor="middle"><textPath startOffset="21.46611528233685" xlink:href="#id9">September</textPath></text><path d="M 81.51974371655577 109.97397251340807 l -35.56255836196419 19.193455662542053 a61.411437706645344,61.411437706645344 0 0,0 -0.4940623031829231,-0.9345796853817883 l 35.887673173372 -18.57846096207414" fill="#44ff2d" stroke="none" /><path d="M 81.18737489456691 109.33194174019688 l -35.25068858545199 17.485989878481035 a60.34934418486357,60.34934418486357 0 0,0 -0.45361654500086485,-0.9345844394842786 l 35.546458387067574 -16.876616483031473" fill="#50ff2b" stroke="none" /><path d="M 81.02952815118164 109.00673069616217 l -56.9114155464551 27.020192088486496 a84.0,84.0 0 0,0 -0.6089015326406932,-1.3115197308846915 l 57.36809169593562 -26.03655229032298" fill="#4dd2ff" stroke="none" /><path d="M 80.20201598880116 107.00284435728193 l -58.17757333349341 20.578281652735814 a82.70977001053664,82.70977001053664 0 0,0 -0.46321082494361415,-1.3463074814670324 l 58.52317498938026 -19.573801468179486" fill="#4be0ff" stroke="none" /><path d="M 79.23777060512086 103.15116336523772 l -8.930859056279267 1.3554708091795737 a30.03313592268285,30.03313592268285 0 0,0 -0.07317494763959706,-0.511785413360007 l 8.952868054935463 -1.2015399238391662" fill="#ff0000" stroke="none" /><path d="M 79.07016306316243 101.71520430193888 l -34.566968273839656 2.8327699287480934 a55.68284707335684,55.68284707335684 0 0,0 -0.07006344966883955,-0.9559601050613272 l 34.610608282172834 -2.237336687190006" fill="#88ff25" stroke="none" /><line stroke="#e1ed5e" stroke-width="0.3" x1="15.007084014347285" x2="10.007500721073583" y1="101.09737516637583" y2="101.16192664675087" /><path d="M 14.007167355692545 101.11028546245083 a86.0,86.0 0 0,1 10.666146001902534,-42.60595125391555" fill="none" id="id10" stroke="none" /><text fill="#e1ed5e" style="font-size:6.75px; font-family:Arial;" text-anchor="middle"><textPath startOffset="22.20632615414155" xlink:href="#id10">October</textPath></text><path d="M 79.12142395522702 97.74499172005258 l -39.82730805154495 -4.301582120909773 a61.05893252915743,61.05893252915743 0 0,0 0.12185515753688905,-1.0439805740854171 l 39.74736254100447 4.986506433320051" fill="#48ff2c" stroke="none" /><path d="M 79.62865764111835 94.90015583598534 l -61.03927121506564 -15.280817807577673 a83.92293717981325,83.92293717981325 0 0,0 0.3628814541021336,-1.3983302713168957 l 60.767193429093204 16.329244504443434" fill="#4dd3ff" stroke="none" /><line stroke="#e1ed5e" stroke-width="0.3" x1="26.266209847984243" x2="21.928928074336255" y1="57.711370442889674" y2="55.22380399835377" /><path d="M 25.398753493254645 57.213857153982495 a86.0,86.0 0 0,1 29.58750427330803,-30.492523968695096" fill="none" id="id11" stroke="none" /><text fill="#e1ed5e" style="font-size:6.75px; font-family:Arial;" text-anchor="middle"><textPath startOffset="21.46611528233685" xlink:href="#id11">November</textPath></text><path d="M 81.96595687620814 89.24020034530311 l -9.200815083540508 -5.489558069660059 a31.714021000617667,31.714021000617667 0 0,0 0.28374111994453344,-0.46639579648468377 l 9.104958165309757 5.647121639351817" fill="#ff1c02" stroke="none" /><path d="M 88.09926311788651 82.69761687909137 l -14.574219283817797 -21.189337117078306 a46.71761799222469,46.71761799222469 0 0,0 0.6664942399513859,-0.45001988598136156 l 14.207320349459872 21.437068915358335" fill="#feff18" stroke="none" /><line stroke="#e1ed5e" stroke-width="0.3" x1="56.762969772571076" x2="54.21961505331055" y1="26.818313649435495" y2="22.513508569990535" /><path d="M 56.25429882871897 25.957352633546506 a86.0,86.0 0 0,1 42.265352541879196,-11.944610805530505" fill="none" id="id12" stroke="none" /><text fill="#e1ed5e" style="font-size:6.75px; font-family:Arial;" text-anchor="middle"><textPath startOffset="22.20632615414155" xlink:href="#id12">December</textPath></text></svg>