<?xml version="1.0" encoding="utf-8" ?>
<svg baseProfile="full" height="200mm" version="1.1" viewBox="0,0,200,200" width="200mm" xmlns="http://www.w3.org/2000/svg" xmlns:ev="http://www.w3.org/2001/xml-events" xmlns:xlink="http://www.w3.org/1999/xlink"><defs /><rect fill="#1a1a1a" height="200" width="200" x="0" y="0" /><text alignment-baseline="middle" fill="#e1ed5e" style="dominant-baseline: central; font-size:9.0px; font-family:Arial;" text-anchor="middle" x="100.0" y="100.0">2023</text><line stroke="#e1ed5e" stroke-width="0.3" x1="100.0" x2="100.0" y1="15.0" y2="10.0" /><path d="M 100.0 14.0 a86.0,86.0 0 0,1 42.46469731375804,11.215312516191453" fill="none" id="id61" stroke="none" /><text fill="#e1ed5e" style="font-size:6.75px; font-family:Arial;" text-anchor="middle"><textPath startOffset="22.20632615414155" xlink:href="#id61">January</textPath></text><line stroke="#e1ed5e" stroke-width="0.3" x1="143.23703022742887" x2="145.7803849466894" y1="26.81831364943548" y2="22.513508569990506" /><path d="M 143.74570117128098 25.957352633546492 a86.0,86.0 0 0,1 28.547481713284135,27.462654790039103" fill="none" id="id62" stroke="none" /><text fill="#e1ed5e" style="font-size:6.75px; font-family:Arial;" text-anchor="middle"><textPath startOffset="19.985693538727396" xlink:href="#id62">February</textPath></text><line stroke="#e1ed5e" stroke-width="0.3" x1="172.23445277983987" x2="176.4835382374775" y1="55.19839476539836" y2="52.563006222186495" /><path d="M 173.08426987136738 54.67131705675599 a86.0,86.0 0 0,1 12.851231095245387,41.99856678651699" fill="none" id="id63" stroke="none" /><text fill="#e1ed5e" style="font-size:6.75px; font-family:Arial;" text-anchor="middle"><textPath startOffset="22.20632615414155" xlink:href="#id63">March</textPath></text><line stroke="#e1ed5e" stroke-width="0.3" x1="184.98032266829074" x2="189.97916517819016" y1="98.17113171792111" y2="98.06355123074" /><path d="M 185.9800911702706 98.14961562048488 a86.0,86.0 0 0,1 -9.607161424134198,41.387399972396054" fill="none" id="id64" stroke="none" /><text fill="#e1ed5e" style="font-size:6.75px; font-family:Arial;" text-anchor="middle"><textPath startOffset="21.466115282336823" xlink:href="#id64">April</textPath></text><line stroke="#e1ed5e" stroke-width="0.3" x1="174.80103733775053" x2="179.2010983576182" y1="140.37084112569926" y2="142.7455964860345" /><path d="M 175.68104954172406 140.8457921977663 a86.0,86.0 0 0,1 -30.038265399797805,32.042727171017184" fill="none" id="id65" stroke="none" /><text fill="#e1ed5e" style="font-size:6.75px; font-family:Arial;" text-anchor="middle"><textPath startOffset="22.206326154141568" xlink:href="#id65">May</textPath></text><path d="M 114.0293411484842 115.62618273729858 l 16.58381251102492 18.471408032327496 a45.823693361334435,45.823693361334435 0 0,0 -0.5914696430311109,0.5219031909787617 l -16.263400515087223 -18.754134365078546" fill="#fff917" stroke="none" /><path d="M 113.48314897796784 116.09983520530334 l 9.26053792598851 11.05773842330916 a35.42328470623108,35.42328470623108 0 0,0 -0.47084270983690907,0.3874714953872924 l -9.06882508760691 -11.215505037553632" fill="#ff6008" stroke="none" /><path d="M 112.34349029814194 116.9893568818739 l 7.841768485654401 10.793268368175328 a34.341213402462934,34.341213402462934 0 0,0 -0.4812228872787841,0.34333975281329976 l -7.654818270526732 -10.926652382832847" fill="#ff4f07" stroke="none" /><line stroke="#e1ed5e" stroke-width="0.3" x1="143.8653032363475" x2="146.44561519142675" y1="172.8068346515853" y2="177.08958963109032" /><path d="M 144.38136562736335 173.6633856474863 a86.0,86.0 0 0,1 -40.68145358897372,12.25698825130547" fill="none" id="id66" stroke="none" /><text fill="#e1ed5e" style="font-size:6.75px; font-family:Arial;" text-anchor="middle"><textPath startOffset="21.466115282336833" xlink:href="#id66">June</textPath></text><path d="M 109.2508944713604 118.85261126421891 l 5.2048331209625385 10.607049494340218 a32.815235367628176,32.815235367628176 0 0,0 -0.5092414049000357,0.24446682090122931 l -5.02147904806227 -10.695070591741008" fill="#ff3605" stroke="none" /><path d="M 107.2578585660854 119.70592522655815 l 5.510655921102364 14.962068017964084 a36.9446168989714,36.9446168989714 0 0,0 -0.5986443081308624,0.2146525501514354 l -5.252292052341766 -15.054708109155479" fill="#ff770b" stroke="none" /><path d="M 101.98527174616119 120.90594882070398 l 1.5202431829272427 16.008955065600656 a37.080975767274126,37.080975767274126 0 0,0 -0.6359487679177129,0.05487233562880029 l -1.2444500972679882 -16.03275165350812" fill="#ff790b" stroke="none" /><line stroke="#e1ed5e" stroke-width="0.3" x1="102.19456741930631" x2="102.32365962044197" y1="184.97166512339345" y2="189.96999836594603" /><path d="M 102.22038585953345 185.97133177190398 a86.0,86.0 0 0,1 -42.740103519485714,-10.115201625700543" fill="none" id="id67" stroke="none" /><text fill="#e1ed5e" style="font-size:6.75px; font-family:Arial;" text-anchor="middle"><textPath startOffset="22.20632615414155" xlink:href="#id67">July</textPath></text><line stroke="#e1ed5e" stroke-width="0.3" x1="58.666819895761336" x2="56.23545636021788" y1="174.27360380694188" y2="178.64263932499728" /><path d="M 58.180547188652646 175.14741091055294 a86.0,86.0 0 0,1 -31.652253787137756,-30.449443065178592" fill="none" id="id68" stroke="none" /><text fill="#e1ed5e" style="font-size:6.75px; font-family:Arial;" text-anchor="middle"><textPath startOffset="22.20632615414155" xlink:href="#id68">August</textPath></text><path d="M 82.05923443525364 110.91462005526583 l -13.690094062031422 8.328639860360175 a37.024509894247885,37.024509894247885 0 0,0 -0.3265546333483211,-0.5473243488792036 l 13.831429571077974 -8.09175341759486" fill="#ff780b" stroke="none" /><line stroke="#e1ed5e" stroke-width="0.3" x1="26.63291911575756" x2="22.317208475507996" y1="142.92168965132927" y2="145.44649492493687" /><path d="M 25.769776987707644 143.4266507060508 a86.0,86.0 0 0,1 -11.730757126820373,-40.83630448921669" fill="none" id="id69" stroke="none" /><text fill="#e1ed5e" style="font-size:6.75px; font-family:Arial;" text-anchor="middle"><textPath startOffset="21.46611528233685" xlink:href="#id69">September</textPath></text><path d="M 79.86692584326677 105.97154293290107 l -8.145240164014773 2.415907822101652 a29.495972453720135,29.495972453720135 0 0,0 -0.14018643967075797,-0.48800738722702003 l 8.185619240571635 -2.275342959370036" fill="#ff0000" stroke="none" /><path d="M 79.76711848015287 105.62410040840567 l -15.719149175583466 4.369425739555097 a37.31513199755776,37.31513199755776 0 0,0 -0.16669544353578897,-0.6203357576237608 l 15.792032695461026 -4.098199048755797" fill="#ff7d0b" stroke="none" /><path d="M 79.67330655649465 105.27499134158121 l -48.325992017341854 12.541104640226228 a70.92675445146912,70.92675445146912 0 0,0 -0.29650316926721026,-1.1843827727632064 l 48.53470650090412 -11.70739402806563" fill="#3bff97" stroke="none" /><path d="M 79.18660465613746 102.79330883721812 l -47.17812295896201 6.331646788398319 a68.60110331687673,68.60110331687673 0 0,0 -0.14699743396478543,-1.1717141807647071 l 47.28012190217364 -5.518614853346204" fill="#37ff7a" stroke="none" /><line stroke="#e1ed5e" stroke-width="0.3" x1="15.007084014347285" x2="10.007500721073583" y1="101.09737516637583" y2="101.16192664675087" /><path d="M 14.007167355692545 101.11028546245083 a86.0,86.0 0 0,1 10.666146001902534,-42.60595125391555" fill="none" id="id70" stroke="none" /><text fill="#e1ed5e" style="font-size:6.75px; font-family:Arial;" text-anchor="middle"><textPath startOffset="22.20632615414155" xlink:href="#id70">October</textPath></text><path d="M 79.05617556472873 98.46500227214037 l -44.44571773829539 -3.2574793563719235 a65.56493012481243,65.56493012481243 0 0,0 0.09218278120350919,-1.1248634211054476 l 44.38306047327238 4.0220566946851495" fill="#33ff52" stroke="none" /><path d="M 79.3925641242962 95.95851677861259 l -31.425092786831414 -6.16301736880616 a53.023729322943794,53.023729322943794 0 0,0 0.1833628836497584,-0.8941425406788965 l 31.31435060726666 6.703035565648459" fill="#a5ff21" stroke="none" /><path d="M 79.46518482838121 95.60439243477599 l -46.591110874554175 -9.973123094647091 a68.64656122729093,68.64656122729093 0 0,0 0.25727950864743293,-1.1533335898244563 l 46.412536978904704 10.773634854021507" fill="#37ff7b" stroke="none" /><path d="M 79.62865764111835 94.90015583598534 l -30.453985533362644 -7.623973798937834 a52.393792560841575,52.393792560841575 0 0,0 0.22654993103574372,-0.8729892998138007 l 30.318239270456594 8.147059524300499" fill="#adff20" stroke="none" /><path d="M 79.81627453868168 94.20196356495316 l -45.29410601262193 -13.011318324625256 a68.12589992803706,68.12589992803706 0 0,0 0.33347336983619985,-1.1243064245954144 l 45.06342674567402 13.78905413596721" fill="#37ff74" stroke="none" /><path d="M 80.02781315780177 93.51064311812611 l -43.16421990740015 -14.024905220442816 a66.38554667134466,66.38554667134466 0 0,0 0.3624736397988898,-1.083750046482974 l 42.91640897382949 14.765828369848112" fill="#34ff5d" stroke="none" /><path d="M 80.38941819471856 92.48833698450439 l -58.83174541584431 -22.534989046486853 a84.0,84.0 0 0,0 0.5288258004732356,-1.3458039804169464 l 58.435126065489385 23.544342031799562" fill="#4dd2ff" stroke="none" /><path d="M 81.43458229118936 90.18545643968196 l -43.471161071263914 -22.980878245957562 a70.17176638925326,70.17176638925326 0 0,0 0.5737106644080117,-1.0629987295986996 l 43.069142307637435 23.725757958888735" fill="#39ff8e" stroke="none" /><line stroke="#e1ed5e" stroke-width="0.3" x1="26.266209847984243" x2="21.928928074336255" y1="57.711370442889674" y2="55.22380399835377" /><path d="M 25.398753493254645 57.213857153982495 a86.0,86.0 0 0,1 29.58750427330803,-30.492523968695096" fill="none" id="id71" stroke="none" /><text fill="#e1ed5e" style="font-size:6.75px; font-family:Arial;" text-anchor="middle"><textPath startOffset="21.46611528233685" xlink:href="#id71">November</textPath></text><path d="M 81.96595687620814 89.24020034530311 l -21.390209448080473 -12.762216805931534 a45.90813598072631,45.90813598072631 0 0,0 0.4107339752812598,-0.6751386601352444 l 21.167359674512994 13.128523239273852" fill="#fffa17" stroke="none" /><path d="M 86.10567301691215 84.25364557470407 l -10.622065071128302 -12.037920335553478 a37.05427645147597,37.05427645147597 0 0,0 0.4818929850264245,-0.4178928479625851 l 10.413278287455105 12.218978176935744" fill="#ff790b" stroke="none" /><path d="M 86.65592168130627 83.78471172551755 l -20.15933323353011 -24.496963521647316 a52.72538318446967,52.72538318446967 0 0,0 0.70575838202566,-0.5706741960591417 l 19.73467145293995 24.840343814970595" fill="#a9ff21" stroke="none" /><line stroke="#e1ed5e" stroke-width="0.3" x1="56.76296977257108" x2="54.21961505331056" y1="26.818313649435495" y2="22.513508569990535" /><path d="M 56.25429882871898 25.957352633546506 a86.0,86.0 0 0,1 42.26535254187918,-11.944610805530505" fill="none" id="id72" stroke="none" /><text fill="#e1ed5e" style="font-size:6.75px; font-family:Arial;" text-anchor="middle"><textPath startOffset="22.20632615414155" xlink:href="#id72">December</textPath></text></svg>